# xmcd
#
# Track frame offsets: 
#        150
#        10101
#        25292
#        35613
#        48517
#        62308
#        71555
#        83989
#        94468
#        108885
#        125772
#        136423
#        151591
#        166094
#        180346
#        195769
#        214139
#        230884
#        250544
#        265804
#        281792
#
# Disc length: 3931 seconds
#
# Revision: 0
# Processed by: cddbd v1.5.2PL0 Copyright (c) Steve Scherf et al.
# Submitted via: ExactAudioCopy v1.0b3
#
DISCID=190f5915
DTITLE=尾藤イサオ - ゴールデン☆ベスト 尾藤イサオ TYCN-60113
DYEAR=2013
DGENRE=JPop
TTITLE0=悲しき願い (with ジャッキー吉川とブルー・コメッツ) 
TTITLE1=匕首マッキー (マック・ザ・ナイフ) (MONO) 
TTITLE2=淋しいだけじゃない (with ジャッキー吉川とブルー・コメッツ) (MONO) 
TTITLE3=ベビーに逢う時 (with ジャッキー吉川とブルー・コメッツ) (MONO) 
TTITLE4=ワーク・ソング (with ジャッキー吉川とブルー・コメッツ) 
TTITLE5=悲しきパラダイス (with ジャッキー吉川とブルー・コメッツ) 
TTITLE6=涙のギター (with ジャッキー吉川とブルー・コメッツ) 
TTITLE7=悲しきさだめ (with ジャッキー吉川とブルー・コメッツ) 
TTITLE8=日はまた昇る (with ジャッキー吉川とブルー・コメッツ) 
TTITLE9=センチメンタル波止場 
TTITLE10=ダーティ・ドッグ 
TTITLE11=銀の十字架 
TTITLE12=風のうわさ 
TTITLE13=片想いのひとしずく 
TTITLE14=悲しき願い (ドーン・ヴァージョン) 
TTITLE15=涙のギター (ドーン・ヴァージョン) 
TTITLE16=巷に雨が降るごとく 
TTITLE17=シー・ユー・アゲイン雰囲気 
TTITLE18=彼女はムービング・オン 
TTITLE19=あしたのジョー 
TTITLE20=また逢う日まで (New Recording) 
EXTD=
EXTT0=
EXTT1=
EXTT2=
EXTT3=
EXTT4=
EXTT5=
EXTT6=
EXTT7=
EXTT8=
EXTT9=
EXTT10=
EXTT11=
EXTT12=
EXTT13=
EXTT14=
EXTT15=
EXTT16=
EXTT17=
EXTT18=
EXTT19=
EXTT20=
PLAYORDER=
